<svg width="75" height="75" viewBox="0 0 75 75" fill="none" xmlns="http://www.w3.org/2000/svg">
<g clip-path="url(#clip0_92_3)">
<rect width="75" height="75" fill="white"/>
<circle cx="37.5" cy="37.5" r="37.5" fill="#FDE9EA"/>
<g filter="url(#filter0_d_92_3)">
<mask id="mask0_92_3" style="mask-type:luminance" maskUnits="userSpaceOnUse" x="19" y="27" width="38" height="28">
<path d="M19 27.8428H56.9213V54.9214H19V27.8428Z" fill="white"/>
</mask>
<g mask="url(#mask0_92_3)">
<path d="M18.9797 43.8344C18.9797 43.5295 18.9797 43.227 18.9797 42.9221C19.1022 42.911 19.1229 42.7864 19.1535 42.6765C19.8468 40.2164 20.54 37.755 21.2343 35.2949C21.5552 34.3333 21.8614 33.3668 22.0559 32.3497C22.4035 31.2017 22.7472 30.0513 23.1027 28.9058C23.3535 28.0935 23.9233 27.8849 24.5336 28.3244C25.5538 29.0588 26.641 29.6106 27.7332 30.1426C28.5677 31.1314 29.6145 31.082 30.6504 31.0733C31.6172 31.2844 32.5939 31.3387 33.5716 31.3881C33.9478 31.4362 34.3329 31.6276 34.6954 31.3264C35.2968 30.8265 35.8962 30.3241 36.4976 29.8217C37.4081 29.2242 38.4174 29.1934 39.4059 29.0428C40.3569 29.0835 41.2625 29.3575 42.1325 29.8254C43.1111 30.4636 43.9782 31.5523 45.2432 31.0141C46.3315 31.0598 47.3605 30.8684 48.1792 29.8513C48.9337 29.3464 49.6496 28.7626 50.3409 28.1306C50.5364 28.1244 50.7329 28.1195 50.9285 28.1121C50.9709 28.1417 51.0134 28.1713 51.0559 28.2009C51.5546 29.3378 52.0552 30.4771 52.553 31.614C52.9292 32.683 53.3252 33.7396 53.8318 34.7234C53.897 34.9024 53.9632 35.0814 54.0283 35.2604C54.9892 37.6304 55.9511 40.0028 56.9119 42.3753C56.9119 42.5592 56.9119 42.7395 56.9119 42.9221C55.4682 44.1627 53.7973 44.828 52.2458 45.7946C51.9861 45.955 51.6711 45.8415 51.5368 45.5329C51.2307 44.8243 50.9166 44.9971 50.5423 45.4156C50.2935 45.6933 50.018 45.9402 49.7553 46.2019C49.4847 46.3562 49.2102 46.4883 49.3632 46.9882C49.6743 48.0053 49.4353 48.8805 48.8853 49.6631C48.6423 49.8458 48.4004 50.0297 48.1594 50.2136C47.8405 50.3914 47.3082 49.9149 47.1788 50.6049C46.9299 51.9195 46.2515 52.6046 45.2472 52.8873C44.6438 52.833 43.8962 52.1714 43.6197 53.4934C43.2375 53.9044 42.8011 54.1957 42.3182 54.3784C41.8678 54.3389 41.4096 54.3081 41.0018 54.0316C40.8013 53.8946 40.6581 53.9575 40.4774 54.0834C40.1258 54.3241 39.7595 54.5303 39.398 54.7487C38.449 54.903 37.5582 54.6302 36.6902 54.1859C36.4581 53.9822 36.2685 53.723 35.9258 53.9859C35.0933 54.6179 34.3043 54.3883 33.5676 53.6859C33.5202 53.6242 33.4738 53.56 33.4264 53.4983C33.2881 53.2169 33.2832 52.7725 32.8674 52.8392C31.9925 52.9786 31.3585 52.4318 30.8035 51.6739C30.7354 51.2258 30.5576 51.0678 30.1596 51.0678C29.2975 51.0666 28.6349 50.5519 28.2586 49.5606C28.1451 49.2632 28.0246 49.1274 27.7441 49.0718C26.7437 48.8768 26.1502 48.1275 26.0544 46.8524C26.0238 46.4401 25.8698 46.2636 25.5854 46.1809C25.1834 45.9316 24.8516 45.186 24.3697 45.5489C23.9431 45.8698 23.6152 45.8217 23.2113 45.6686C22.1211 45.2514 21.0299 44.8367 19.9317 44.4466C19.5772 44.317 19.2513 44.1504 18.9797 43.8344ZM47.9678 44.775C48.1841 45.2675 48.4419 45.2885 48.7737 44.9255C49.0107 44.6663 49.2803 44.4565 49.536 44.2244C50.3972 43.4455 50.3972 43.4455 49.775 42.3469C48.8013 40.0609 47.9422 37.7094 47.2489 35.2665C47.165 34.89 47.085 34.5098 46.9951 34.1346C46.6189 32.5546 46.6179 32.5546 45.2363 32.7891C44.2754 32.936 43.3264 33.0014 42.5295 32.1176C41.5074 31.2597 40.4171 30.5611 39.1561 30.9055C38.603 31.0561 37.9592 30.761 37.4871 31.3609C37.0951 31.4103 36.7652 31.6239 36.4779 31.9522C36.1737 32.1843 35.8666 32.4114 35.5654 32.6484C34.7862 33.2582 34.1483 33.9889 34.1631 35.2641C34.0772 35.9664 33.8629 36.5774 33.4373 37.0786C33.2891 37.2526 33.2052 37.5365 33.137 37.7896C32.9761 38.3932 33.1706 38.7216 33.6782 38.7561C34.2352 38.7969 34.728 38.5993 35.1526 38.1377C35.597 37.655 36.0009 37.102 36.2162 36.4305C36.5263 35.4554 37.1326 35.1591 37.8654 35.0986C38.2969 35.0616 38.7324 35.1258 39.1679 35.1431C39.3437 35.2455 39.5205 35.3468 39.6962 35.448C40.5673 36.391 41.4353 37.3341 42.3053 38.2772C42.4702 38.5339 42.6421 38.7759 42.888 38.9178C43.6257 39.8868 44.4216 40.7731 45.2472 41.6199C45.5355 42.068 45.8693 42.4543 46.2495 42.7777C46.7769 43.5035 47.3556 44.1615 47.9678 44.775ZM32.6917 35.2628C32.824 34.6864 32.9385 34.1025 33.0946 33.5359C33.1993 33.1533 33.0906 33.0743 32.8112 33.057C32.0903 33.0187 31.3713 32.9508 30.6514 32.8928C30.0283 32.8163 29.4022 32.7583 28.781 32.6521C28.4206 32.5904 28.3337 32.7916 28.2833 33.1854C28.1974 33.8717 28.0611 34.5456 27.9466 35.2246C27.8241 35.7825 27.7026 36.3404 27.5792 36.8984C26.9679 38.7969 26.4011 40.7188 25.6713 42.5543C25.135 43.8998 25.1518 43.8936 26.2253 44.6219C26.4959 44.8058 26.6835 44.8996 26.8741 44.4985C27.0765 44.0689 27.4241 43.8331 27.7619 43.5974C28.5954 43.3233 29.34 43.5085 29.889 44.375C30.1438 44.7774 30.3848 44.57 30.6494 44.5034C31.2933 44.5059 31.9559 44.6132 32.345 45.2872C32.7124 45.9242 33.0906 45.9044 33.5696 45.6612C34.0683 45.7464 34.5403 45.9217 34.9788 46.2315C35.2286 46.6204 35.5684 46.9561 35.6414 47.4647C35.7283 48.0769 36.0167 48.2843 36.4631 48.2905C36.7494 48.562 37.1109 49.1336 37.3074 49.0558C38.1932 48.7028 38.5586 49.5742 39.0988 50.0421C39.8227 50.7901 40.5366 51.5505 41.2753 52.275C41.6871 52.6799 42.1888 52.875 42.567 52.2812C42.9393 51.6949 42.5937 51.174 42.2441 50.7938C41.3158 49.7791 40.3589 48.8077 39.4138 47.8202C38.9635 47.2215 38.4648 46.6932 37.9325 46.2118C37.6313 45.8637 37.3331 45.5106 37.0269 45.17C36.6872 44.7885 36.5865 44.338 36.8966 43.8936C37.2116 43.4455 37.5849 43.5393 37.9305 43.8924C38.3404 44.3145 38.7502 44.7367 39.161 45.1588C39.4464 45.5637 39.7644 45.9205 40.1298 46.2081C40.7203 46.9647 41.3632 47.6461 42.0505 48.2658C42.5601 48.936 43.125 49.5286 43.7313 50.0618C44.1629 50.5815 44.5529 51.1974 45.2571 51.0789C45.972 50.4235 46.0382 49.8532 45.4003 49.1644C43.4607 47.0672 41.4995 45.0021 39.5481 42.9259C39.479 42.7962 39.4089 42.6654 39.3407 42.5358C39.2835 42.2432 39.3694 41.9754 39.4276 41.7001C39.9007 41.2249 40.2957 41.4076 40.7134 41.8618C42.5078 43.8134 44.3189 45.739 46.1202 47.6782C46.4737 48.0609 46.844 48.3942 47.3082 48.5262C47.5857 48.604 47.8395 48.5448 48.0241 48.2436C48.2167 47.9263 48.1565 47.6004 48.0024 47.3116C47.7565 46.8574 47.4425 46.4809 47.0712 46.1859C46.5033 45.5267 45.9375 44.8675 45.3696 44.2096C43.3728 41.7841 41.3079 39.4474 39.1956 37.181C38.4747 36.4096 37.7745 36.5984 37.2709 37.5847C37.0368 38.0402 36.7712 38.4722 36.5213 38.9166C36.4749 38.9191 36.4561 38.9487 36.4591 39.0042C35.6592 39.9967 34.6944 40.5003 33.5716 40.5398C32.7578 40.3374 32.0666 39.9263 31.7496 38.8734C31.5985 37.9044 31.8088 37.0502 32.2216 36.2281C32.3806 35.9072 32.7154 35.7183 32.6917 35.2628ZM34.0189 47.619C33.8974 47.4202 33.7384 47.4264 33.5686 47.4906C33.2111 47.4239 33.0462 47.7436 32.8842 48.0411C32.6127 48.541 32.3757 49.0706 32.0903 49.5594C31.7979 50.0581 31.7802 50.5309 32.1653 50.9148C32.5751 51.3221 32.9938 51.211 33.3059 50.7049C33.6456 50.1531 33.9666 49.5829 34.2628 48.9953C34.5314 48.4596 34.5048 47.9646 34.0189 47.619ZM52.4078 35.2517C52.076 34.2432 51.6918 33.2681 51.2228 32.3447C51.1744 32.0719 51.0993 31.8152 50.9324 31.614C50.4515 30.0969 50.4515 30.0969 49.4047 30.9487C49.2665 31.0622 49.14 31.1968 49.0087 31.3227C47.9422 32.0423 47.9353 32.0448 48.2839 33.4816C48.428 34.0803 48.6068 34.6666 48.7687 35.2604C49.5163 38.1945 50.6302 40.9052 51.9911 43.464C52.157 43.7776 52.2923 43.9553 52.628 43.7418C53.3835 43.2591 54.1567 42.8246 54.931 42.3938C55.1907 42.2506 55.2489 42.0889 55.1117 41.7705C54.6959 40.8188 54.294 39.8559 53.8871 38.8956C53.4516 37.6439 52.9658 36.4256 52.4078 35.2517ZM26.4297 31.4017C25.8066 31.0277 25.1775 30.6635 24.5583 30.2747C24.3124 30.1204 24.1752 30.1327 24.0774 30.4969C23.6508 32.088 23.2084 33.6754 22.7709 35.2628C22.0046 37.6563 21.3301 40.0929 20.6783 42.5383C20.5124 42.7839 20.6082 42.9098 20.8096 42.9863C21.6184 43.2937 22.4292 43.5887 23.234 43.9121C23.4967 44.0146 23.5767 43.8232 23.6725 43.6023C24.823 40.9434 25.8599 38.2253 26.4376 35.2702C26.7497 34.3593 26.8267 33.373 27.0084 32.4213C27.1348 31.7671 26.9294 31.4696 26.4297 31.4017ZM30.8341 46.2167C30.7926 46.2315 30.682 46.2352 30.6129 46.3056C30.0559 46.8672 29.6501 47.5807 29.4516 48.4337C29.3666 48.8027 29.5641 49.1496 29.8752 49.2854C30.1636 49.4101 30.4667 49.4039 30.6672 49.0595C30.9684 48.546 31.2676 48.0275 31.5204 47.4782C31.7861 46.9018 31.4217 46.2081 30.8341 46.2167ZM37.7251 50.8197C37.5296 51.2777 37.3736 51.6813 37.1879 52.0627C37.0901 52.2664 37.0329 52.3874 37.2294 52.5738C37.7775 53.0873 38.9052 53.1848 39.5452 52.7095C38.9457 52.0862 38.3581 51.4764 37.7251 50.8197ZM36.2626 50.6222C36.2725 50.3284 36.1984 50.1198 36.0226 49.9754C35.8409 49.8285 35.6375 49.8125 35.4874 49.9964C35.0548 50.521 34.7201 51.1481 34.4534 51.8196C34.3339 52.1195 34.4574 52.4269 34.7072 52.5676C34.9916 52.7281 35.1407 52.5812 35.201 52.1936C35.2444 51.9158 35.439 51.7751 35.6454 51.6492C35.991 51.4394 36.1352 51.0147 36.2626 50.6222ZM28.941 45.7884C28.9213 45.4378 28.7405 45.2243 28.4334 45.1983C28.1164 45.1712 27.4162 46.2365 27.4251 46.7166C27.432 47.1215 27.6138 47.3289 27.9278 47.3486C28.2339 47.3647 28.9469 46.2932 28.941 45.7884Z" fill="white"/>
</g>
</g>
<g filter="url(#filter1_d_92_3)">
<mask id="mask1_92_3" style="mask-type:luminance" maskUnits="userSpaceOnUse" x="34" y="17" width="3" height="10">
<path d="M34.2041 17H36.7322V26.2616H34.2041V17Z" fill="white"/>
</mask>
<g mask="url(#mask1_92_3)">
<path d="M35.321 17.0259C35.9619 18.0578 35.8128 19.349 36.032 20.5155C36.267 21.7684 36.4152 23.0484 36.6008 24.3161C36.5722 24.863 36.8013 25.4369 36.4843 25.9504C35.716 26.3084 35.4424 26.1245 35.2864 25.1518C35.24 24.8605 35.1876 24.5729 35.1383 24.284C34.9793 23.0706 34.8213 21.8585 34.6633 20.6438C34.5764 19.8958 34.529 19.1354 34.3917 18.4022C34.285 17.8221 34.4026 17.3987 34.7354 17.0259C34.9319 17.0259 35.1264 17.0259 35.321 17.0259Z" fill="white"/>
</g>
</g>
<g filter="url(#filter2_d_92_3)">
<mask id="mask2_92_3" style="mask-type:luminance" maskUnits="userSpaceOnUse" x="39" y="17" width="4" height="10">
<path d="M39.5142 17H42.0423V26.2616H39.5142V17Z" fill="white"/>
</mask>
<g mask="url(#mask2_92_3)">
<path d="M40.8646 17.0259C41.1076 17.0259 41.3505 17.0259 41.5944 17.0259C41.9045 17.4641 41.9519 17.9665 41.8749 18.5306C41.7761 19.2404 41.7218 19.9612 41.6477 20.6759C41.5184 21.8869 41.389 23.099 41.2596 24.3087C41.2073 24.6593 41.1638 25.0111 41.1016 25.3579C41.0049 25.8937 40.754 26.2381 40.2879 26.1196C39.8771 26.0159 39.7033 25.6406 39.7467 25.1172C39.7694 24.8518 39.7902 24.584 39.8099 24.3174C39.9472 23.1114 40.0815 21.9041 40.2188 20.6969C40.4933 19.4909 40.3185 18.159 40.8646 17.0259Z" fill="white"/>
</g>
</g>
<g filter="url(#filter3_d_92_3)">
<path d="M44.2369 24.3367C44.9108 23.3256 45.6076 22.3264 46.2539 21.2963C46.6251 20.7054 47.0624 20.4929 47.7099 20.8248C48.0342 21.2581 48.003 21.6759 47.7063 22.1187C47.3327 22.6774 46.9951 23.2599 46.6419 23.8293C46.0424 24.7318 45.4442 25.633 44.8447 26.5355C44.4255 26.7479 44.0062 26.8243 43.6602 26.4209C43.283 25.9792 43.486 25.565 43.7551 25.1543C43.9281 24.8905 44.0771 24.61 44.2369 24.3367Z" fill="white"/>
</g>
<g filter="url(#filter4_d_92_3)">
<path d="M30.8155 26.2019C30.3943 25.5257 29.9662 24.855 29.4323 24.2576C29.1841 23.8723 28.9461 23.4792 28.682 23.105C28.378 22.6709 28.2972 22.23 28.7788 21.9069C29.2444 21.5938 29.6657 21.7614 29.9708 22.2178C30.0755 22.3733 30.2042 22.5143 30.3226 22.662C30.6994 23.1972 31.0774 23.7335 31.4531 24.2698C31.6625 24.5896 31.8584 24.9183 32.0815 25.227C32.3969 25.6633 32.6132 26.113 32.0917 26.5194C31.5589 26.9336 31.1673 26.5972 30.8155 26.2019Z" fill="white"/>
</g>
</g>
<defs>
<filter id="filter0_d_92_3" x="15" y="28.0991" width="45.9121" height="40.6929" filterUnits="userSpaceOnUse" color-interpolation-filters="sRGB">
<feFlood flood-opacity="0" result="BackgroundImageFix"/>
<feColorMatrix in="SourceAlpha" type="matrix" values="0 0 0 0 0 0 0 0 0 0 0 0 0 0 0 0 0 0 127 0" result="hardAlpha"/>
<feOffset dy="10"/>
<feGaussianBlur stdDeviation="2"/>
<feComposite in2="hardAlpha" operator="out"/>
<feColorMatrix type="matrix" values="0 0 0 0 0 0 0 0 0 0 0 0 0 0 0 0 0 0 0.25 0"/>
<feBlend mode="normal" in2="BackgroundImageFix" result="effect1_dropShadow_92_3"/>
<feBlend mode="normal" in="SourceGraphic" in2="effect1_dropShadow_92_3" result="shape"/>
</filter>
<filter id="filter1_d_92_3" x="30.3535" y="17.0259" width="10.3008" height="23.0938" filterUnits="userSpaceOnUse" color-interpolation-filters="sRGB">
<feFlood flood-opacity="0" result="BackgroundImageFix"/>
<feColorMatrix in="SourceAlpha" type="matrix" values="0 0 0 0 0 0 0 0 0 0 0 0 0 0 0 0 0 0 127 0" result="hardAlpha"/>
<feOffset dy="10"/>
<feGaussianBlur stdDeviation="2"/>
<feComposite in2="hardAlpha" operator="out"/>
<feColorMatrix type="matrix" values="0 0 0 0 0 0 0 0 0 0 0 0 0 0 0 0 0 0 0.25 0"/>
<feBlend mode="normal" in2="BackgroundImageFix" result="effect1_dropShadow_92_3"/>
<feBlend mode="normal" in="SourceGraphic" in2="effect1_dropShadow_92_3" result="shape"/>
</filter>
<filter id="filter2_d_92_3" x="35.7402" y="17.0259" width="10.167" height="23.1172" filterUnits="userSpaceOnUse" color-interpolation-filters="sRGB">
<feFlood flood-opacity="0" result="BackgroundImageFix"/>
<feColorMatrix in="SourceAlpha" type="matrix" values="0 0 0 0 0 0 0 0 0 0 0 0 0 0 0 0 0 0 127 0" result="hardAlpha"/>
<feOffset dy="10"/>
<feGaussianBlur stdDeviation="2"/>
<feComposite in2="hardAlpha" operator="out"/>
<feColorMatrix type="matrix" values="0 0 0 0 0 0 0 0 0 0 0 0 0 0 0 0 0 0 0.25 0"/>
<feBlend mode="normal" in2="BackgroundImageFix" result="effect1_dropShadow_92_3"/>
<feBlend mode="normal" in="SourceGraphic" in2="effect1_dropShadow_92_3" result="shape"/>
</filter>
<filter id="filter3_d_92_3" x="39.4531" y="20.668" width="12.4883" height="20.0415" filterUnits="userSpaceOnUse" color-interpolation-filters="sRGB">
<feFlood flood-opacity="0" result="BackgroundImageFix"/>
<feColorMatrix in="SourceAlpha" type="matrix" values="0 0 0 0 0 0 0 0 0 0 0 0 0 0 0 0 0 0 127 0" result="hardAlpha"/>
<feOffset dy="10"/>
<feGaussianBlur stdDeviation="2"/>
<feComposite in2="hardAlpha" operator="out"/>
<feColorMatrix type="matrix" values="0 0 0 0 0 0 0 0 0 0 0 0 0 0 0 0 0 0 0.25 0"/>
<feBlend mode="normal" in2="BackgroundImageFix" result="effect1_dropShadow_92_3"/>
<feBlend mode="normal" in="SourceGraphic" in2="effect1_dropShadow_92_3" result="shape"/>
</filter>
<filter id="filter4_d_92_3" x="24.4358" y="21.7466" width="11.9702" height="18.9624" filterUnits="userSpaceOnUse" color-interpolation-filters="sRGB">
<feFlood flood-opacity="0" result="BackgroundImageFix"/>
<feColorMatrix in="SourceAlpha" type="matrix" values="0 0 0 0 0 0 0 0 0 0 0 0 0 0 0 0 0 0 127 0" result="hardAlpha"/>
<feOffset dy="10"/>
<feGaussianBlur stdDeviation="2"/>
<feComposite in2="hardAlpha" operator="out"/>
<feColorMatrix type="matrix" values="0 0 0 0 0 0 0 0 0 0 0 0 0 0 0 0 0 0 0.25 0"/>
<feBlend mode="normal" in2="BackgroundImageFix" result="effect1_dropShadow_92_3"/>
<feBlend mode="normal" in="SourceGraphic" in2="effect1_dropShadow_92_3" result="shape"/>
</filter>
<clipPath id="clip0_92_3">
<rect width="75" height="75" fill="white"/>
</clipPath>
</defs>
</svg>
