<svg width="75" height="75" viewBox="0 0 75 75" fill="none" xmlns="http://www.w3.org/2000/svg">
<rect width="75" height="75" fill="white"/>
<ellipse cx="37.5" cy="36.5546" rx="37.5" ry="36.5546" fill="#FDE9EA"/>
<g filter="url(#filter0_d_100_2)">
<mask id="mask0_100_2" style="mask-type:luminance" maskUnits="userSpaceOnUse" x="19" y="16" width="38" height="43">
<path d="M19 16H56.0879V58.7215H19V16Z" fill="white"/>
</mask>
<g mask="url(#mask0_100_2)">
<path d="M35.7503 16.1108C26.4555 16.1108 19 24.2974 19 33.8472C19 39.2314 21.0451 42.6765 23.0026 45.6114C24.9601 48.5474 26.7771 50.9588 26.7771 54.5575V58.6586H27.9732V54.5575C27.9732 50.4754 25.9017 47.7354 23.9696 44.8395C22.0386 41.9436 20.1961 38.8739 20.1961 33.8472C20.1961 25.0448 27.0978 17.4196 35.7503 17.4196C45.6387 17.4196 50.706 24.9501 50.706 32.4037V32.5831L54.8226 40.2316C54.9773 40.519 54.8847 40.8665 54.6139 41.018H54.6119L50.706 43.2033V48.8403C50.706 51.3776 48.8381 53.4214 46.5182 53.4214H42.3314C42.252 53.4214 42.1756 53.4381 42.1023 53.4716C42.029 53.505 41.9639 53.5518 41.9079 53.6141C41.8519 53.6754 41.8081 53.7456 41.7786 53.8258C41.7481 53.906 41.7328 53.9895 41.7328 54.0764C41.7328 54.1632 41.7481 54.2468 41.7786 54.327C41.8081 54.4072 41.8519 54.4785 41.9079 54.5397C41.9639 54.601 42.029 54.6478 42.1023 54.6812C42.1756 54.7146 42.252 54.7313 42.3314 54.7313V58.6586H43.5275V54.7313H46.5182C49.4845 54.7313 51.9031 52.086 51.9031 48.8403V44.003L55.1565 42.1842C56.0268 41.6985 56.3485 40.4878 55.8528 39.5667L51.8838 32.191C51.785 24.1481 46.11 16.1108 35.7503 16.1108ZM35.4511 20.6931C32.8624 20.6931 30.7217 22.6022 30.0732 25.174C28.5545 25.4491 27.3431 26.6052 26.9003 28.169H26.8993C26.0035 28.2737 25.0639 28.6825 24.2618 29.4343C23.3487 30.2897 22.6259 31.5528 22.5903 33.0876C22.5262 35.8131 24.6181 38.2234 27.3248 38.3649L27.339 38.366H29.2049C29.2843 38.3682 29.3617 38.3515 29.436 38.3192C29.5103 38.2869 29.5765 38.2401 29.6335 38.1778C29.6905 38.1165 29.7343 38.0452 29.7648 37.965C29.7964 37.8837 29.8116 37.7991 29.8116 37.7122C29.8116 37.6242 29.7964 37.5407 29.7648 37.4593C29.7343 37.378 29.6905 37.3079 29.6335 37.2455C29.5765 37.1842 29.5103 37.1375 29.436 37.104C29.3617 37.0717 29.2843 37.0561 29.2049 37.0573H27.3777C25.2919 36.9448 23.7406 35.0847 23.7864 33.1221C23.8129 32.0172 24.3279 31.0961 25.0405 30.4289C25.7531 29.7607 26.6672 29.392 27.2769 29.392C27.2362 29.392 27.2566 29.3953 27.335 29.3953H27.8317L27.9233 28.8607C28.1534 27.5174 29.2161 26.4749 30.5415 26.3813C30.6524 26.505 30.8021 26.584 30.9639 26.584C31.0118 26.584 31.0596 26.5774 31.1014 26.564C31.4241 26.4782 31.6215 26.1252 31.5442 25.7788C31.4994 25.5772 31.3721 25.4301 31.2154 25.3477C31.7661 23.4186 33.4416 22.0018 35.4511 22.0018C37.2752 22.0018 38.8144 23.178 39.4964 24.8354L39.4954 24.8365C39.2735 25.1049 39.2918 25.517 39.5371 25.7598C39.6511 25.8712 39.7946 25.9291 39.9382 25.9291C40.099 25.9291 40.2609 25.8578 40.381 25.713C40.4502 25.6295 40.4879 25.5293 40.5103 25.4257C40.7077 25.3878 40.9073 25.3611 41.1108 25.3611C43.0531 25.3611 44.6004 27.0229 44.6004 29.0734C44.6004 29.3953 44.5576 29.7083 44.4823 30.0146L44.4141 30.2908C44.2726 30.0035 43.9631 29.8609 43.6771 29.9812C43.3727 30.1115 43.216 30.4913 43.3361 30.8243C43.4257 31.0872 43.6527 31.2509 43.8919 31.2509C43.9642 31.2509 44.0364 31.2309 44.1077 31.2042C44.3215 31.1151 44.4497 30.9068 44.4782 30.6796L44.8885 30.8132C46.2026 31.242 47.0831 32.4817 47.1157 33.7949C47.1534 35.3275 46.0235 36.7989 44.408 37.0573H40.7719C40.6925 37.0561 40.6151 37.0717 40.5408 37.104C40.4665 37.1375 40.4003 37.1842 40.3433 37.2455C40.2863 37.3079 40.2425 37.378 40.212 37.4593C40.1815 37.5407 40.1652 37.6242 40.1652 37.7122C40.1652 37.7991 40.1815 37.8837 40.212 37.965C40.2425 38.0452 40.2863 38.1165 40.3433 38.1778C40.4003 38.2401 40.4665 38.2869 40.5408 38.3192C40.6151 38.3515 40.6925 38.3682 40.7719 38.366H44.5159L44.5576 38.3604C46.7523 38.0229 48.3678 36.0114 48.3118 33.7593C48.2691 32.0239 47.2145 30.5147 45.7059 29.8019C45.7405 29.5602 45.7965 29.3274 45.7965 29.0734C45.7965 26.2989 43.6842 24.0512 41.1108 24.0512C40.8889 24.0512 40.6833 24.1014 40.4716 24.1348C39.5605 22.1121 37.6753 20.6931 35.4511 20.6931ZM33.3093 25.4758C33.0752 25.4747 32.8533 25.6262 32.7586 25.8768C32.6273 26.2042 32.7698 26.5896 33.0762 26.7333C33.1464 26.7667 33.2319 26.7868 33.3093 26.7857C33.5424 26.7857 33.7643 26.6364 33.86 26.3869C33.9913 26.0528 33.8478 25.6663 33.5434 25.5293C33.4671 25.4936 33.3877 25.4758 33.3093 25.4758ZM40.1163 26.965C39.9646 26.9884 39.8221 27.0764 39.7234 27.22C39.5259 27.5074 39.5788 27.9184 39.8425 28.1345C39.9494 28.2269 40.0756 28.2659 40.2008 28.267C40.381 28.267 40.5601 28.1813 40.6803 28.0108C40.8767 27.7168 40.8217 27.3036 40.5591 27.0875C40.4278 26.9795 40.269 26.9416 40.1163 26.965ZM34.9991 27.1621C34.9217 27.1766 34.8454 27.2089 34.7751 27.2579C34.4993 27.4539 34.4219 27.8605 34.6021 28.1679V28.1612C34.7151 28.3584 34.9065 28.4619 35.1039 28.4619C35.2118 28.4619 35.3258 28.4296 35.4276 28.3584C35.7025 28.1623 35.786 27.7558 35.6068 27.4551V27.4473C35.4724 27.2212 35.2302 27.1165 34.9991 27.1621ZM29.5286 28.8807C29.3739 28.8807 29.2212 28.9442 29.1042 29.0723C28.871 29.3274 28.871 29.7462 29.1042 30.0012C29.2243 30.126 29.3729 30.1906 29.5286 30.1906C29.6783 30.1906 29.834 30.126 29.9541 30.0012C30.1872 29.7462 30.1872 29.3274 29.9541 29.0723C29.8371 28.9442 29.6823 28.8807 29.5286 28.8807ZM35.6842 30.899L35.1813 31.7544C35.1813 31.7544 34.8657 32.289 34.5481 32.9317C34.3893 33.2536 34.2285 33.6033 34.1013 33.943C33.975 34.2827 33.8671 34.589 33.8671 34.9711C33.8671 36.0916 34.6632 37.0573 35.6842 37.0573C36.7042 37.0573 37.5002 36.0916 37.5002 34.9711C37.5002 34.589 37.3933 34.2827 37.2661 33.943C37.1388 33.6033 36.978 33.2536 36.8192 32.9317C36.5016 32.289 36.187 31.7544 36.187 31.7544L35.6842 30.899ZM30.4316 31.2309C30.1028 31.2576 29.8574 31.565 29.8758 31.9259C29.8992 32.2723 30.1628 32.5407 30.4733 32.5407C30.4855 32.5407 30.5028 32.5407 30.516 32.5341C30.8448 32.514 31.0963 32.1999 31.0718 31.8401C31.0484 31.4793 30.7614 31.2053 30.4316 31.2309ZM42.2876 31.8246C42.0555 31.8413 41.8448 32.005 41.7684 32.2656H41.7634C41.6554 32.6065 41.8214 32.9785 42.1339 33.0965C42.199 33.1155 42.2652 33.1299 42.3314 33.1299C42.5767 33.1299 42.8098 32.9595 42.9004 32.6911L42.8933 32.6833C43.0012 32.3436 42.8393 31.9705 42.5227 31.8591C42.4444 31.8301 42.365 31.819 42.2876 31.8246ZM35.6842 33.3995C35.7239 33.4786 35.7249 33.4708 35.7666 33.5543C35.9122 33.8495 36.0567 34.1669 36.1585 34.4376C36.2593 34.7093 36.3041 34.9577 36.3041 34.9711C36.3041 35.4322 36.0099 35.7485 35.6842 35.7485C35.3574 35.7485 35.0632 35.4322 35.0632 34.9711C35.0632 34.9577 35.108 34.7093 35.2098 34.4376C35.3106 34.1669 35.4551 33.8495 35.6007 33.5543C35.6424 33.4708 35.6434 33.4786 35.6842 33.3995ZM32.5214 36.8222L32.0196 37.671C32.0196 37.671 31.704 38.2034 31.3864 38.8416C31.2276 39.1613 31.0668 39.5088 30.9395 39.8474C30.8123 40.1849 30.7054 40.49 30.7054 40.871C30.7054 41.9881 31.5035 42.9482 32.5214 42.9482C33.5394 42.9482 34.3384 41.9881 34.3384 40.871C34.3384 40.49 34.2295 40.1849 34.1033 39.8474C33.976 39.5088 33.8152 39.1613 33.6564 38.8416C33.3388 38.2034 33.0243 37.671 33.0243 37.671L32.5214 36.8222ZM38.4265 38.3359L37.9308 39.1401C37.9308 39.1401 37.6142 39.6513 37.2966 40.2662C37.1368 40.5736 36.977 40.9077 36.8487 41.2341C36.7204 41.5604 36.6095 41.8567 36.6095 42.2376C36.6095 43.337 37.4218 44.2581 38.4265 44.2581C39.4302 44.2581 40.2425 43.337 40.2425 42.2376C40.2425 41.8567 40.1326 41.5604 40.0043 41.2341C39.8761 40.9077 39.7152 40.5736 39.5554 40.2662C39.2378 39.6513 38.9223 39.1401 38.9223 39.1401L38.4265 38.3359ZM32.5214 39.3127C32.5631 39.3918 32.5631 39.384 32.6049 39.4676C32.7504 39.7605 32.895 40.0768 32.9968 40.3452C33.0976 40.6148 33.1424 40.8598 33.1424 40.871C33.1424 41.3254 32.8502 41.6395 32.5214 41.6395C32.1936 41.6395 31.9015 41.3254 31.9015 40.871C31.9015 40.8598 31.9452 40.6148 32.046 40.3452C32.1478 40.0768 32.2913 39.7605 32.4379 39.4676C32.4797 39.3829 32.4807 39.3918 32.5214 39.3127ZM38.4265 40.7551C38.4693 40.8342 38.4703 40.8264 38.5151 40.9122C38.6606 41.1929 38.8042 41.4947 38.905 41.7509C39.0057 42.0071 39.0464 42.2421 39.0464 42.2376C39.0464 42.6464 38.7675 42.9482 38.4265 42.9482C38.0845 42.9482 37.8056 42.6464 37.8056 42.2376C37.8056 42.2421 37.8473 42.0071 37.9481 41.7509C38.0489 41.4947 38.1914 41.1929 38.3369 40.9122C38.3817 40.8264 38.3827 40.8342 38.4265 40.7551ZM35.7503 50.804C35.6709 50.804 35.5946 50.8207 35.5213 50.853C35.448 50.8864 35.3829 50.9343 35.3269 50.9956C35.2709 51.0568 35.2281 51.127 35.1976 51.2072C35.167 51.2874 35.1518 51.3709 35.1518 51.4578C35.1518 51.5447 35.167 51.6282 35.1976 51.7084C35.2281 51.7886 35.2709 51.8599 35.3269 51.9211C35.3829 51.9824 35.448 52.0292 35.5213 52.0626C35.5946 52.096 35.6709 52.1127 35.7503 52.1127C35.8297 52.1127 35.9061 52.096 35.9794 52.0626C36.0527 52.0292 36.1168 51.9824 36.1738 51.9211C36.2298 51.8599 36.2725 51.7886 36.3031 51.7084C36.3336 51.6282 36.3489 51.5447 36.3489 51.4578C36.3489 51.3709 36.3336 51.2874 36.3031 51.2072C36.2725 51.127 36.2298 51.0568 36.1738 50.9956C36.1168 50.9343 36.0527 50.8864 35.9794 50.853C35.9061 50.8207 35.8297 50.804 35.7503 50.804ZM37.545 52.7676C37.4656 52.7676 37.3892 52.7843 37.3159 52.8166C37.2426 52.8501 37.1785 52.8979 37.1215 52.9592C37.0655 53.0205 37.0228 53.0918 36.9922 53.1719C36.9617 53.2521 36.9464 53.3346 36.9464 53.4214C36.9464 53.5083 36.9617 53.5919 36.9922 53.6721C37.0228 53.7522 37.0655 53.8235 37.1215 53.8848C37.1785 53.946 37.2426 53.9939 37.3159 54.0262C37.3892 54.0597 37.4656 54.0764 37.545 54.0764C37.6244 54.0764 37.7007 54.0597 37.774 54.0262C37.8473 53.9939 37.9114 53.946 37.9684 53.8848C38.0244 53.8235 38.0672 53.7522 38.0977 53.6721C38.1283 53.5919 38.1435 53.5083 38.1435 53.4214C38.1435 53.3346 38.1283 53.2521 38.0977 53.1719C38.0672 53.0918 38.0244 53.0205 37.9684 52.9592C37.9114 52.8979 37.8473 52.8501 37.774 52.8166C37.7007 52.7843 37.6244 52.7676 37.545 52.7676ZM39.9382 53.4214C39.8588 53.4214 39.7824 53.4381 39.7091 53.4716C39.6358 53.505 39.5707 53.5518 39.5147 53.6141C39.4587 53.6754 39.416 53.7456 39.3854 53.8258C39.3549 53.906 39.3396 53.9895 39.3396 54.0764C39.3396 54.1632 39.3549 54.2468 39.3854 54.327C39.416 54.4072 39.4587 54.4785 39.5147 54.5397C39.5707 54.601 39.6358 54.6478 39.7091 54.6812C39.7824 54.7146 39.8588 54.7313 39.9382 54.7313C40.0176 54.7313 40.0939 54.7146 40.1672 54.6812C40.2405 54.6478 40.3046 54.601 40.3606 54.5397C40.4166 54.4785 40.4604 54.4072 40.4909 54.327C40.5215 54.2468 40.5357 54.1632 40.5357 54.0764C40.5357 53.9895 40.5215 53.906 40.4909 53.8258C40.4604 53.7456 40.4166 53.6754 40.3606 53.6141C40.3046 53.5518 40.2405 53.505 40.1672 53.4716C40.0939 53.4381 40.0176 53.4214 39.9382 53.4214Z" fill="white"/>
</g>
</g>
<defs>
<filter id="filter0_d_100_2" x="15" y="16.1108" width="45.0864" height="56.5479" filterUnits="userSpaceOnUse" color-interpolation-filters="sRGB">
<feFlood flood-opacity="0" result="BackgroundImageFix"/>
<feColorMatrix in="SourceAlpha" type="matrix" values="0 0 0 0 0 0 0 0 0 0 0 0 0 0 0 0 0 0 127 0" result="hardAlpha"/>
<feOffset dy="10"/>
<feGaussianBlur stdDeviation="2"/>
<feComposite in2="hardAlpha" operator="out"/>
<feColorMatrix type="matrix" values="0 0 0 0 0 0 0 0 0 0 0 0 0 0 0 0 0 0 0.25 0"/>
<feBlend mode="normal" in2="BackgroundImageFix" result="effect1_dropShadow_100_2"/>
<feBlend mode="normal" in="SourceGraphic" in2="effect1_dropShadow_100_2" result="shape"/>
</filter>
</defs>
</svg>
