<svg width="75" height="75" viewBox="0 0 75 75" fill="none" xmlns="http://www.w3.org/2000/svg">
<rect width="75" height="75" fill="white"/>
<ellipse cx="37.5" cy="37.5546" rx="37.5" ry="36.5546" fill="#FDE9EA"/>
<g filter="url(#filter0_d_100_3)">
<path d="M29.1897 58.9945C36.3457 59.2082 43.2267 53.1732 43.4353 46.2013C45.2533 47.7514 47.507 48.6226 49.8459 48.6264C57.3621 48.6504 59.8311 39.8983 54.4332 34.9355C53.0219 33.4865 51.2479 32.4598 49.2878 31.7732C50.4811 31.141 51.9655 30.5581 53.8126 30.1143C54.6179 29.9828 55.3807 29.7325 56.0996 29.362C56.8199 28.9915 57.4577 28.5199 58.0145 27.9484C60.6418 25.2578 60.6643 21.0233 58.0664 18.3099C55.3395 15.331 50.1409 15.2146 47.2772 18.0697C46.731 18.5906 46.2805 19.1773 45.927 19.831C45.5722 20.4847 45.3303 21.1738 45.2001 21.8995C43.83 27.0937 41.1829 29.2963 39.7251 30.1472C37.8593 31.3408 39.248 33.3525 40.4865 34.5954C41.7928 35.7776 43.8951 37.1317 45.1656 35.3376C45.6586 34.5688 46.5861 33.4536 48.2353 32.3902C48.5967 32.5622 48.9702 32.7203 49.3476 32.8568C51.0219 33.4587 52.4731 34.3817 53.6997 35.6246C56.6245 38.2861 57.4205 43.1301 54.4877 45.8776C51.6053 48.6732 46.5303 47.9158 43.7397 45.1253C43.6387 45.038 42.432 44.0961 40.3444 40.7011C39.5909 39.4684 38.6859 38.3468 37.6281 37.3378C36.5703 36.3301 35.3956 35.4665 34.1026 34.7484C28.9877 31.82 27.3425 29.9323 26.8429 26.1922C26.4841 22.3105 29.7824 19.1646 33.8514 19.506C37.2348 19.6767 40.3018 22.1853 41.8168 25.0593C42.1397 25.6308 43.0274 25.1983 42.7363 24.6155C42.0746 23.3688 41.2121 22.2662 40.1477 21.3078C34.6913 15.9594 25.2761 18.7373 25.8157 26.2592C25.9605 28.2708 26.8509 30.2167 28.3365 31.7972C9.98331 33.465 10.8617 58.4268 29.1897 58.9945ZM44.2872 34.8242C44.2327 34.9102 44.1622 34.9848 44.0799 35.0468C43.9975 35.11 43.9058 35.1568 43.8048 35.1884C43.7051 35.22 43.6015 35.2339 43.4965 35.2301C43.3902 35.2276 43.2878 35.2073 43.1908 35.1694C42.5317 34.9216 41.8699 34.4967 41.2227 33.9088C40.6061 33.2905 40.1623 32.6596 39.9018 32.0324C39.862 31.9389 39.8407 31.8415 39.8367 31.7403C39.8341 31.6405 39.8487 31.5418 39.8819 31.4457C39.9151 31.3496 39.9643 31.2624 40.0294 31.184C40.0959 31.1044 40.1729 31.0386 40.2633 30.9855C41.8992 30.2433 45.3915 26.593 46.4014 21.3103C47.1974 18.7297 49.8725 16.8659 52.699 16.9696C58.178 17.0328 61.0152 23.4788 57.2597 27.2795C56.4757 28.0837 55.5322 28.6464 54.4305 28.9688C48.8878 29.9335 45.0685 33.2627 44.2872 34.8242ZM33.5843 35.5968C34.8002 36.272 35.9045 37.0837 36.8999 38.0333C37.8939 38.9816 38.7457 40.0361 39.454 41.1955C40.0772 42.2336 40.7643 43.2337 41.5124 44.1947C39.3597 49.117 32.2076 50.4206 28.3179 46.5642C24.2489 42.8342 25.6668 35.9521 30.8853 33.9455C31.5777 34.4183 32.4641 34.9734 33.5843 35.5968ZM19.8277 36.4566C20.4483 35.8598 21.1247 35.3287 21.8582 34.8622C22.5904 34.3969 23.3652 34.0049 24.1798 33.6863C24.9957 33.3689 25.8356 33.1325 26.7007 32.9757C27.5671 32.8201 28.4402 32.7468 29.3199 32.7582C29.4913 32.9049 29.7013 33.0781 29.9565 33.2741C29.0807 33.6926 28.2954 34.2325 27.6017 34.8925C18.6702 35.9938 14.8723 46.8853 21.3293 52.8849C21.627 53.1681 21.9393 53.4337 22.2675 53.6827C22.5944 53.9318 22.9373 54.162 23.2921 54.3731C23.6469 54.5855 24.0137 54.7777 24.3924 54.9497C24.7711 55.1229 25.1579 55.2746 25.5539 55.4049C25.9499 55.5351 26.3525 55.6451 26.7618 55.7323C27.1711 55.8196 27.5831 55.8841 28.0003 55.9271C28.4176 55.97 28.8349 55.9903 29.2535 55.9877C29.6734 55.9852 30.0907 55.9599 30.5066 55.9131C30.9226 55.8651 31.3358 55.7956 31.7438 55.7045C32.1518 55.6122 32.5518 55.4997 32.9465 55.3644C33.3411 55.2291 33.7265 55.0736 34.1026 54.8966C34.4787 54.7208 34.8428 54.5236 35.1963 54.3086C35.5484 54.0924 35.8873 53.8585 36.2129 53.6056C36.5384 53.354 36.8467 53.0847 37.1404 52.7989C37.4341 52.5132 37.7092 52.2122 37.967 51.8974C38.2235 51.5813 38.4627 51.2526 38.6806 50.9124C39.0208 50.3536 38.1676 49.8554 37.8022 50.4004C37.6029 50.7089 37.3876 51.0073 37.1537 51.293C36.9198 51.58 36.67 51.8519 36.4042 52.1111C36.1384 52.3703 35.858 52.6143 35.563 52.8432C35.268 53.0733 34.9597 53.2857 34.6395 53.4817C34.3192 53.6764 33.9896 53.8547 33.6481 54.0153C33.3066 54.1759 32.9571 54.3162 32.5996 54.4389C32.2408 54.5615 31.8767 54.6652 31.5073 54.7474C31.1365 54.8308 30.7631 54.894 30.3857 54.937C30.0083 54.98 29.6282 55.0028 29.2482 55.0053C28.8681 55.0066 28.4894 54.9889 28.1106 54.9497C27.7332 54.9105 27.3585 54.8523 26.9864 54.7727C26.6156 54.6943 26.2502 54.5944 25.8914 54.4768C25.5313 54.3579 25.1804 54.2201 24.8376 54.0633C24.4947 53.9078 24.1612 53.7333 23.8383 53.5411C23.5167 53.3489 23.2057 53.1391 22.908 52.914C22.6104 52.6877 22.3273 52.4474 22.0576 52.1908C16.5865 47.1584 19.1912 37.8651 26.5426 36.1013C22.3194 41.7329 26.7857 49.9275 34.0667 49.8149C37.3225 49.8769 40.743 47.95 42.2287 45.0456C42.2991 45.124 42.3669 45.1974 42.4294 45.2631C42.6433 56.4505 28.0708 62.2832 19.8277 54.3187C14.665 49.3939 14.665 41.3814 19.8277 36.4566Z" fill="white"/>
</g>
<defs>
<filter id="filter0_d_100_3" x="11" y="16" width="53" height="57" filterUnits="userSpaceOnUse" color-interpolation-filters="sRGB">
<feFlood flood-opacity="0" result="BackgroundImageFix"/>
<feColorMatrix in="SourceAlpha" type="matrix" values="0 0 0 0 0 0 0 0 0 0 0 0 0 0 0 0 0 0 127 0" result="hardAlpha"/>
<feOffset dy="10"/>
<feGaussianBlur stdDeviation="2"/>
<feComposite in2="hardAlpha" operator="out"/>
<feColorMatrix type="matrix" values="0 0 0 0 0 0 0 0 0 0 0 0 0 0 0 0 0 0 0.25 0"/>
<feBlend mode="normal" in2="BackgroundImageFix" result="effect1_dropShadow_100_3"/>
<feBlend mode="normal" in="SourceGraphic" in2="effect1_dropShadow_100_3" result="shape"/>
</filter>
</defs>
</svg>
