<svg width="75" height="75" viewBox="0 0 75 75" fill="none" xmlns="http://www.w3.org/2000/svg">
<g clip-path="url(#clip0_100_4)">
<rect width="75" height="75" fill="white"/>
<circle cx="37.5" cy="37.5" r="37.5" fill="#FDE9EA"/>
<g filter="url(#filter0_d_100_4)">
<g filter="url(#filter1_d_100_4)">
<path d="M35.3304 45.2605C35.9336 43.9015 36.4294 42.3802 36.7652 40.8618C37.1032 39.3334 37.2822 37.7924 37.2822 36.4051C37.2822 34.1881 36.8413 32.1969 36.0064 30.6474C35.1446 29.0485 33.8866 27.9618 32.369 27.5032C31.8653 27.3508 31.4389 27.2802 31.0248 27.2802C30.5783 27.2802 30.1977 27.3621 29.7568 27.4566C29.4568 27.5215 29.1177 27.5949 28.7058 27.65C28.4731 27.6824 28.3041 27.9449 28.3298 28.2384C28.3522 28.5094 28.5335 28.714 28.7506 28.714C28.7652 28.714 28.7808 28.714 28.7965 28.7112C29.233 28.6519 29.5867 28.5757 29.8989 28.508C30.3208 28.4177 30.6532 28.3457 31.0293 28.3457C31.3695 28.3457 31.7333 28.4078 32.1709 28.5404C34.8413 29.3462 36.435 32.2872 36.435 36.4051C36.435 39.0201 35.7456 42.1361 34.5906 44.7412C33.3438 47.5538 31.712 49.4984 29.9985 50.2153C29.8888 50.2605 29.7724 50.283 29.6437 50.283C29.3069 50.283 28.9274 50.125 28.5268 49.9599C28.0545 49.7637 27.5665 49.5605 27.0394 49.5591H27.0327C26.5033 49.5591 26.0131 49.7623 25.5396 49.9585C25.1379 50.125 24.7584 50.283 24.4216 50.283C24.2929 50.283 24.1776 50.2605 24.0679 50.2153C22.3533 49.4984 20.7226 47.5538 19.4758 44.7412C18.3208 42.1361 17.6314 39.0201 17.6314 36.4051C17.6314 32.2872 19.2251 29.3462 21.8944 28.5404C22.3354 28.4064 22.7002 28.3443 23.0416 28.3443C23.4154 28.3443 23.7456 28.4162 24.1653 28.5052C24.4585 28.5687 24.792 28.6392 25.2016 28.6985C25.2184 28.7013 25.2341 28.7013 25.2509 28.7013C25.4658 28.7013 25.6471 28.4981 25.6706 28.2286C25.684 28.0874 25.6516 27.9477 25.5811 27.8362C25.5105 27.7248 25.4098 27.6542 25.2979 27.6387C24.9129 27.5836 24.5906 27.5145 24.3074 27.4538C23.8687 27.3592 23.4904 27.2788 23.0461 27.2788C22.6309 27.2788 22.2022 27.3494 21.6974 27.5032C20.1787 27.9618 18.9218 29.0485 18.0601 30.6474C17.2251 32.1969 16.7842 34.1881 16.7842 36.4051C16.7842 37.791 16.9621 39.3334 17.3001 40.8618C17.6359 42.3802 18.1328 43.9015 18.7349 45.2605C20.0858 48.3073 21.8855 50.427 23.8004 51.2272C23.9996 51.3104 24.2022 51.3513 24.4216 51.3513C24.8916 51.3513 25.3561 51.158 25.8049 50.9731C26.2324 50.7953 26.6353 50.6288 27.0271 50.626L27.0327 50.6274C27.4266 50.6274 27.8329 50.7939 28.2615 50.9731C28.7103 51.158 29.1737 51.3513 29.6449 51.3513C29.8631 51.3513 30.0668 51.3104 30.2649 51.2272C32.181 50.427 33.9795 48.3073 35.3304 45.2605Z" fill="white"/>
</g>
<g filter="url(#filter2_d_100_4)">
<mask id="mask0_100_4" style="mask-type:luminance" maskUnits="userSpaceOnUse" x="16" y="16" width="16" height="12">
<path d="M16 16H31.0337V27.2167H16V16Z" fill="white"/>
</mask>
<g mask="url(#mask0_100_4)">
<path d="M17.1476 19.771L17.1779 19.5788C17.1532 19.5788 17.1376 19.5943 17.1376 19.5943C17.1465 19.5859 17.1823 19.5364 17.2171 19.4897C17.4086 19.2353 17.8542 18.6375 18.4937 18.0976C19.2966 17.4191 20.1129 17.0743 20.9215 17.0743C22.5665 17.0743 24.1152 18.4905 25.5251 21.2805L25.5744 21.378L25.4904 21.4275C25.4814 21.4317 25.468 21.4416 25.4489 21.4544C25.2686 21.5759 24.7177 21.9448 23.5598 21.9448C21.9047 21.9448 19.7468 21.2127 17.1476 19.771ZM23.7513 22.9723C24.4411 22.9723 24.8621 22.8508 25.0525 22.7773C25.4109 22.6402 25.7703 22.4565 26.122 22.2275L26.1634 22.2006L26.2037 22.2346C26.3885 22.3929 26.5553 22.602 26.702 22.8536C26.7177 22.8819 26.7367 22.9073 26.7569 22.9314L26.7894 22.9695L26.7815 23.0232C26.5094 24.9469 26.5072 26.5002 26.5072 26.5652C26.5072 26.8592 26.6964 27.0995 26.9305 27.0995C27.1645 27.0995 27.3549 26.8592 27.3549 26.5652C27.3549 26.5115 27.3751 21.1717 29.0783 18.3788L29.1309 18.2912L29.6393 18.882L29.5587 18.9541C29.4344 19.0657 29.328 19.1816 29.2418 19.2989C29.1657 19.4035 29.1265 19.5406 29.1321 19.6834C29.1365 19.8261 29.1858 19.9576 29.2687 20.0537C29.3471 20.1441 29.449 20.1936 29.5554 20.1936C29.6741 20.1936 29.7883 20.13 29.8678 20.0198C30.0481 19.7724 30.4008 19.5632 30.5218 19.5025C30.6595 19.4346 30.7581 19.2862 30.7849 19.1039C30.8129 18.9216 30.7648 18.7378 30.6562 18.612L29.3896 17.1364C29.3112 17.0446 29.2082 16.9937 29.1018 16.9937C28.9865 16.9937 28.879 17.0516 28.7984 17.1548C28.2631 17.8431 27.8107 18.7746 27.4523 19.9237C27.2989 20.4127 27.1612 20.9512 27.0413 21.5236L27.0089 21.6791L26.9126 21.5759C26.7603 21.412 26.6012 21.2763 26.4389 21.1689L26.4198 21.1561L26.4086 21.1321C24.7457 17.7371 22.8901 16.0156 20.8946 16.0156C18.9942 16.0156 17.2854 17.6382 16.3212 19.1576C16.0916 19.5166 15.9987 19.8177 16.0446 20.0509C16.0771 20.2191 16.1846 20.3547 16.366 20.4551C20.095 22.5356 22.44 22.9723 23.7502 22.9723H23.7513Z" fill="white"/>
</g>
</g>
<g filter="url(#filter3_d_100_4)">
<path d="M21.9044 31.7048C22.0562 31.5025 22.0562 31.1721 21.9044 30.9697C21.83 30.8706 21.7318 30.8169 21.6275 30.8169C21.5232 30.8169 21.425 30.8706 21.3506 30.9697C20.7969 31.7062 20.4528 32.6217 20.3278 33.6914C20.2297 34.5242 20.2658 35.4466 20.4342 36.4337C20.7152 38.0884 21.2669 39.3508 21.2897 39.4031C21.3599 39.5628 21.4891 39.6606 21.6275 39.6606C21.6967 39.6606 21.7649 39.6372 21.8248 39.5904C22.0108 39.4444 22.0738 39.1251 21.9653 38.8773C21.9602 38.8662 21.4612 37.7222 21.2049 36.2492C21.0562 35.4012 21.019 34.6165 21.0944 33.9171C21.1884 33.0388 21.4612 32.2941 21.9044 31.7048Z" fill="white"/>
</g>
<g filter="url(#filter4_d_100_4)">
<path d="M25.2179 49.5619C25.4193 49.7644 25.704 49.7079 25.8533 49.4363C26.0025 49.1647 25.9609 48.7785 25.7607 48.576L22.3465 45.1316C22.2644 45.0296 22.1556 44.9668 22.0364 44.9668C21.7852 44.9668 21.5815 45.2431 21.5815 45.5838C21.5815 45.78 21.6498 45.9543 21.7551 46.0673L25.2179 49.5619Z" fill="white"/>
</g>
<g filter="url(#filter5_d_100_4)">
<mask id="mask1_100_4" style="mask-type:luminance" maskUnits="userSpaceOnUse" x="30" y="16" width="29" height="43">
<path d="M30.9907 16.4302H58.9999V59.0002H30.9907V16.4302Z" fill="white"/>
</mask>
<g mask="url(#mask1_100_4)">
<path d="M54.518 29.474L57.518 32.2895C57.714 32.4746 57.7543 32.828 57.6054 33.0782L56.1922 35.4696C56.0443 35.7198 55.7644 35.7735 55.5673 35.5883L42.2715 23.1067C42.0756 22.9229 42.0364 22.5696 42.1842 22.3194L43.5974 19.9279C43.7452 19.6778 44.0263 19.6241 44.2223 19.8092L52.7375 27.802C52.9312 27.9843 53.2067 27.9334 53.3511 27.6889C53.4956 27.4444 53.4564 27.0967 53.2616 26.9143L46.6344 20.6926C46.4597 20.5286 46.425 20.2149 46.556 19.993L47.8886 17.74C48.0196 17.5181 48.2682 17.4701 48.4418 17.634L57.9637 26.5723C58.1384 26.7363 58.1731 27.05 58.0421 27.2719L56.7106 29.5249C56.5785 29.7468 56.3299 29.7948 56.1563 29.6309L55.0421 28.5864C54.8484 28.4041 54.5729 28.4535 54.4273 28.6995C54.2828 28.944 54.3232 29.2917 54.518 29.474ZM40.7116 46.2821L38.3924 44.1055L47.2357 29.1475L49.5549 31.3241L40.7116 46.2821ZM53.5718 18.4297L55.8909 20.6064L54.8876 22.3039L52.5684 20.1272L53.5718 18.4297ZM34.3756 56.9998L32.0564 54.8232L33.0598 53.1257L35.379 55.3024L34.3756 56.9998ZM57.4139 30.1864L58.7454 27.9334C59.1664 27.2211 59.0511 26.2133 58.4889 25.6847L55.5919 22.9653L56.8573 20.824C57.0018 20.5795 56.9615 20.2318 56.7666 20.0495L53.7442 17.2128C53.5505 17.0305 53.2739 17.0814 53.1294 17.3259L51.864 19.4658L48.967 16.7464C48.4037 16.2178 47.6042 16.3676 47.1842 17.0785L45.8516 19.3315C45.8012 19.4177 45.7565 19.511 45.7206 19.6071L45.6579 19.7753L44.7464 18.9216C44.1618 18.3718 43.3309 18.5273 42.893 19.2665L41.4798 21.6579C41.042 22.3971 41.1629 23.4459 41.7475 23.9943L46.5314 28.486L37.6881 43.444L37.4227 43.1952C37.3443 43.1034 37.239 43.0468 37.1237 43.0468C36.8807 43.0468 36.6836 43.2956 36.6836 43.6023C36.6836 43.7818 36.7519 43.9401 36.856 44.0418V44.0433L45.6747 52.3229C45.8718 52.5067 45.911 52.8614 45.7632 53.1116L44.3499 55.5016C44.2021 55.7518 43.921 55.8055 43.7251 55.6218L40.725 52.8049C40.5302 52.6226 40.2547 52.6734 40.1103 52.918C39.9658 53.1625 40.0061 53.5102 40.1998 53.6925L41.313 54.737C41.4877 54.901 41.5224 55.2147 41.3913 55.4366L40.0599 57.6896C39.9277 57.9129 39.6791 57.9595 39.5056 57.7956L32.6813 51.3915C32.6791 51.3901 32.6779 51.3887 32.6768 51.3873L32.6757 51.3858C32.6029 51.3194 32.5122 51.2798 32.4159 51.2798C32.1729 51.2798 31.9758 51.5286 31.9758 51.8339C31.9758 52.0402 32.0643 52.2197 32.1964 52.3144L32.3554 52.4643L31.09 54.6056C30.9456 54.8501 30.9859 55.1978 31.1807 55.3801L34.2032 58.2182C34.3969 58.4005 34.6735 58.3496 34.8179 58.1051L36.0833 55.9638L38.9804 58.6832C39.5425 59.2118 40.3432 59.062 40.7631 58.351L42.0957 56.0981C42.1472 56.0105 42.192 55.9172 42.2267 55.8225L42.2906 55.6543L43.201 56.508C43.7855 57.0578 44.6165 56.9023 45.0543 56.1631L46.4675 53.7716C46.9043 53.0324 46.7845 51.9837 46.1999 51.4353L41.416 46.9435L50.2593 31.9856L55.0432 36.476C55.6278 37.0258 56.4598 36.8703 56.8965 36.1297L58.3098 33.7396C58.7476 33.0004 58.6278 31.9517 58.0421 31.4019L57.1328 30.5482L57.2426 30.4238C57.3041 30.3545 57.3624 30.274 57.4139 30.1864Z" fill="white"/>
</g>
</g>
</g>
</g>
<defs>
<filter id="filter0_d_100_4" x="12.0332" y="16.0156" width="50.9658" height="50.9839" filterUnits="userSpaceOnUse" color-interpolation-filters="sRGB">
<feFlood flood-opacity="0" result="BackgroundImageFix"/>
<feColorMatrix in="SourceAlpha" type="matrix" values="0 0 0 0 0 0 0 0 0 0 0 0 0 0 0 0 0 0 127 0" result="hardAlpha"/>
<feOffset dy="4"/>
<feGaussianBlur stdDeviation="2"/>
<feComposite in2="hardAlpha" operator="out"/>
<feColorMatrix type="matrix" values="0 0 0 0 0 0 0 0 0 0 0 0 0 0 0 0 0 0 0.25 0"/>
<feBlend mode="normal" in2="BackgroundImageFix" result="effect1_dropShadow_100_4"/>
<feBlend mode="normal" in="SourceGraphic" in2="effect1_dropShadow_100_4" result="shape"/>
</filter>
<filter id="filter1_d_100_4" x="12.7842" y="27.2788" width="28.498" height="38.1729" filterUnits="userSpaceOnUse" color-interpolation-filters="sRGB">
<feFlood flood-opacity="0" result="BackgroundImageFix"/>
<feColorMatrix in="SourceAlpha" type="matrix" values="0 0 0 0 0 0 0 0 0 0 0 0 0 0 0 0 0 0 127 0" result="hardAlpha"/>
<feOffset dy="10"/>
<feGaussianBlur stdDeviation="2"/>
<feComposite in2="hardAlpha" operator="out"/>
<feColorMatrix type="matrix" values="0 0 0 0 0 0 0 0 0 0 0 0 0 0 0 0 0 0 0.25 0"/>
<feBlend mode="normal" in2="BackgroundImageFix" result="effect1_dropShadow_100_4"/>
<feBlend mode="normal" in="SourceGraphic" in2="effect1_dropShadow_100_4" result="shape"/>
</filter>
<filter id="filter2_d_100_4" x="12.0332" y="16.0156" width="22.7598" height="25.084" filterUnits="userSpaceOnUse" color-interpolation-filters="sRGB">
<feFlood flood-opacity="0" result="BackgroundImageFix"/>
<feColorMatrix in="SourceAlpha" type="matrix" values="0 0 0 0 0 0 0 0 0 0 0 0 0 0 0 0 0 0 127 0" result="hardAlpha"/>
<feOffset dy="10"/>
<feGaussianBlur stdDeviation="2"/>
<feComposite in2="hardAlpha" operator="out"/>
<feColorMatrix type="matrix" values="0 0 0 0 0 0 0 0 0 0 0 0 0 0 0 0 0 0 0.25 0"/>
<feBlend mode="normal" in2="BackgroundImageFix" result="effect1_dropShadow_100_4"/>
<feBlend mode="normal" in="SourceGraphic" in2="effect1_dropShadow_100_4" result="shape"/>
</filter>
<filter id="filter3_d_100_4" x="16.2739" y="30.8169" width="9.74463" height="22.8438" filterUnits="userSpaceOnUse" color-interpolation-filters="sRGB">
<feFlood flood-opacity="0" result="BackgroundImageFix"/>
<feColorMatrix in="SourceAlpha" type="matrix" values="0 0 0 0 0 0 0 0 0 0 0 0 0 0 0 0 0 0 127 0" result="hardAlpha"/>
<feOffset dy="10"/>
<feGaussianBlur stdDeviation="2"/>
<feComposite in2="hardAlpha" operator="out"/>
<feColorMatrix type="matrix" values="0 0 0 0 0 0 0 0 0 0 0 0 0 0 0 0 0 0 0.25 0"/>
<feBlend mode="normal" in2="BackgroundImageFix" result="effect1_dropShadow_100_4"/>
<feBlend mode="normal" in="SourceGraphic" in2="effect1_dropShadow_100_4" result="shape"/>
</filter>
<filter id="filter4_d_100_4" x="17.5815" y="44.9668" width="12.3613" height="18.7168" filterUnits="userSpaceOnUse" color-interpolation-filters="sRGB">
<feFlood flood-opacity="0" result="BackgroundImageFix"/>
<feColorMatrix in="SourceAlpha" type="matrix" values="0 0 0 0 0 0 0 0 0 0 0 0 0 0 0 0 0 0 127 0" result="hardAlpha"/>
<feOffset dy="10"/>
<feGaussianBlur stdDeviation="2"/>
<feComposite in2="hardAlpha" operator="out"/>
<feColorMatrix type="matrix" values="0 0 0 0 0 0 0 0 0 0 0 0 0 0 0 0 0 0 0.25 0"/>
<feBlend mode="normal" in2="BackgroundImageFix" result="effect1_dropShadow_100_4"/>
<feBlend mode="normal" in="SourceGraphic" in2="effect1_dropShadow_100_4" result="shape"/>
</filter>
<filter id="filter5_d_100_4" x="27.0034" y="16.4302" width="35.9956" height="56.5693" filterUnits="userSpaceOnUse" color-interpolation-filters="sRGB">
<feFlood flood-opacity="0" result="BackgroundImageFix"/>
<feColorMatrix in="SourceAlpha" type="matrix" values="0 0 0 0 0 0 0 0 0 0 0 0 0 0 0 0 0 0 127 0" result="hardAlpha"/>
<feOffset dy="10"/>
<feGaussianBlur stdDeviation="2"/>
<feComposite in2="hardAlpha" operator="out"/>
<feColorMatrix type="matrix" values="0 0 0 0 0 0 0 0 0 0 0 0 0 0 0 0 0 0 0.25 0"/>
<feBlend mode="normal" in2="BackgroundImageFix" result="effect1_dropShadow_100_4"/>
<feBlend mode="normal" in="SourceGraphic" in2="effect1_dropShadow_100_4" result="shape"/>
</filter>
<clipPath id="clip0_100_4">
<rect width="75" height="75" fill="white"/>
</clipPath>
</defs>
</svg>
